<svg width="109" height="123" viewBox="0 0 109 123" fill="none" xmlns="http://www.w3.org/2000/svg">
<g filter="url(#filter0_dii_370_187)">
<path fill-rule="evenodd" clip-rule="evenodd" d="M54.4933 0.988281C68.1365 0.988281 91.7342 34.5878 101.082 56.5534C113.488 85.6936 89.8393 114.988 54.4933 114.988C20.1578 114.988 -4.34948 86.3338 7.39886 57.7454C16.4185 35.802 40.7742 0.988281 54.4933 0.988281Z" fill="#0D42C1"/>
<path d="M100.162 56.9449L100.162 56.945C106.213 71.159 103.476 85.3795 94.9139 96.0734C86.3408 106.782 71.8906 113.988 54.4933 113.988C37.6013 113.988 23.18 106.941 14.4328 96.4472C5.69765 85.9681 2.60331 72.0458 8.3238 58.1256C12.7946 47.2489 21.0892 33.1377 29.9722 21.7532C34.4131 16.0617 38.9756 11.0848 43.2534 7.54086C47.5747 3.96091 51.4344 1.98828 54.4933 1.98828C57.5403 1.98828 61.3414 3.89296 65.5814 7.35592C69.7811 10.7861 74.2512 15.6114 78.6127 21.1523C87.336 32.2343 95.5255 46.05 100.162 56.9449Z" stroke="#003D6D" stroke-width="2" stroke-miterlimit="22.9256"/>
</g>
<g opacity="0.6" filter="url(#filter1_f_370_187)">
<path fill-rule="evenodd" clip-rule="evenodd" d="M54.4727 14.9883C64.2958 14.9883 81.2862 40.3353 88.0169 56.9058C96.9486 78.8887 79.9219 100.988 54.4727 100.988C29.7512 100.988 12.106 79.3717 20.5648 57.8051C27.0589 41.2513 44.595 14.9883 54.4727 14.9883Z" fill="url(#paint0_linear_370_187)" fill-opacity="0.3"/>
</g>
<g opacity="0.6" filter="url(#filter2_f_370_187)">
<path fill-rule="evenodd" clip-rule="evenodd" d="M54.4727 14.9883C64.2958 14.9883 81.2862 40.3353 88.0169 56.9058C96.9486 78.8887 79.9219 100.988 54.4727 100.988C29.7512 100.988 12.106 79.3717 20.5648 57.8051C27.0589 41.2513 44.595 14.9883 54.4727 14.9883Z" fill="url(#paint1_linear_370_187)" fill-opacity="0.3"/>
</g>
<g opacity="0.3" filter="url(#filter3_f_370_187)">
<path fill-rule="evenodd" clip-rule="evenodd" d="M20.9551 81.6459L56.6132 14.6758C64.8339 18.135 76.0648 33.7337 83.1586 47.4763L55.2246 99.9395C54.6619 99.9615 54.0947 99.9726 53.5234 99.9726C38.845 99.9726 26.6613 92.352 20.9551 81.6459Z" fill="url(#paint2_linear_370_187)"/>
</g>
<g opacity="0.6" filter="url(#filter4_f_370_187)">
<path fill-rule="evenodd" clip-rule="evenodd" d="M65.8693 99.4111C63.3339 99.7897 60.699 99.9883 57.9808 99.9883C42.9917 99.9883 30.2592 93.7302 22.9749 84.5132C29.0489 94.2357 40.6556 100.988 54.4727 100.988C58.5065 100.988 62.3286 100.433 65.8693 99.4111Z" fill="white" fill-opacity="0.65"/>
</g>
<g opacity="0.6" filter="url(#filter5_f_370_187)">
<path fill-rule="evenodd" clip-rule="evenodd" d="M75.1567 33.5568C68.0965 23.3222 60.1073 14.9883 54.4747 14.9883C54.0962 14.9883 53.7065 15.0268 53.3066 15.1019C59.505 16.126 67.7288 23.9494 75.1567 33.5568Z" fill="white" fill-opacity="0.65"/>
</g>
<g filter="url(#filter6_i_370_187)">
<path d="M54.4199 75.9883C63.2565 75.9883 70.4199 68.8248 70.4199 59.9883C70.4199 51.1517 63.2565 43.9883 54.4199 43.9883C45.5834 43.9883 38.4199 51.1517 38.4199 59.9883C38.4199 68.8248 45.5834 75.9883 54.4199 75.9883Z" fill="#0D42C1"/>
</g>
<path d="M54.4199 76.4883C63.5326 76.4883 70.9199 69.101 70.9199 59.9883C70.9199 50.8756 63.5326 43.4883 54.4199 43.4883C45.3072 43.4883 37.9199 50.8756 37.9199 59.9883C37.9199 69.101 45.3072 76.4883 54.4199 76.4883Z" stroke="#0D42C1" stroke-miterlimit="22.9256"/>
<g filter="url(#filter7_i_370_187)">
<path d="M54.4199 72.9883C61.5996 72.9883 67.4199 67.168 67.4199 59.9883C67.4199 52.8086 61.5996 46.9883 54.4199 46.9883C47.2402 46.9883 41.4199 52.8086 41.4199 59.9883C41.4199 67.168 47.2402 72.9883 54.4199 72.9883Z" fill="#003D6D"/>
</g>
<path d="M54.4199 72.9883C61.5996 72.9883 67.4199 67.168 67.4199 59.9883C67.4199 52.8086 61.5996 46.9883 54.4199 46.9883C47.2402 46.9883 41.4199 52.8086 41.4199 59.9883C41.4199 67.168 47.2402 72.9883 54.4199 72.9883Z" stroke="#0D42C1" stroke-miterlimit="22.9256"/>
<g filter="url(#filter8_f_370_187)">
<ellipse cx="46.9164" cy="52.4218" rx="2" ry="1.5" transform="rotate(-39.9172 46.9164 52.4218)" fill="white" fill-opacity="0.58"/>
</g>
<defs>
<filter id="filter0_dii_370_187" x="0.419922" y="0.988281" width="108" height="122" filterUnits="userSpaceOnUse" color-interpolation-filters="sRGB">
<feFlood flood-opacity="0" result="BackgroundImageFix"/>
<feColorMatrix in="SourceAlpha" type="matrix" values="0 0 0 0 0 0 0 0 0 0 0 0 0 0 0 0 0 0 127 0" result="hardAlpha"/>
<feOffset dy="4"/>
<feGaussianBlur stdDeviation="2"/>
<feComposite in2="hardAlpha" operator="out"/>
<feColorMatrix type="matrix" values="0 0 0 0 0 0 0 0 0 0 0 0 0 0 0 0 0 0 0.25 0"/>
<feBlend mode="normal" in2="BackgroundImageFix" result="effect1_dropShadow_370_187"/>
<feBlend mode="normal" in="SourceGraphic" in2="effect1_dropShadow_370_187" result="shape"/>
<feColorMatrix in="SourceAlpha" type="matrix" values="0 0 0 0 0 0 0 0 0 0 0 0 0 0 0 0 0 0 127 0" result="hardAlpha"/>
<feOffset/>
<feGaussianBlur stdDeviation="3.8"/>
<feComposite in2="hardAlpha" operator="arithmetic" k2="-1" k3="1"/>
<feColorMatrix type="matrix" values="0 0 0 0 0.446667 0 0 0 0 0 0 0 0 0 0.130171 0 0 0 1 0"/>
<feBlend mode="normal" in2="shape" result="effect2_innerShadow_370_187"/>
<feColorMatrix in="SourceAlpha" type="matrix" values="0 0 0 0 0 0 0 0 0 0 0 0 0 0 0 0 0 0 127 0" result="hardAlpha"/>
<feOffset/>
<feGaussianBlur stdDeviation="2"/>
<feComposite in2="hardAlpha" operator="arithmetic" k2="-1" k3="1"/>
<feColorMatrix type="matrix" values="0 0 0 0 0.366667 0 0 0 0 0 0 0 0 0 0.165 0 0 0 0.67 0"/>
<feBlend mode="normal" in2="effect2_innerShadow_370_187" result="effect3_innerShadow_370_187"/>
</filter>
<filter id="filter1_f_370_187" x="17.4199" y="13.9883" width="74" height="88" filterUnits="userSpaceOnUse" color-interpolation-filters="sRGB">
<feFlood flood-opacity="0" result="BackgroundImageFix"/>
<feBlend mode="normal" in="SourceGraphic" in2="BackgroundImageFix" result="shape"/>
<feGaussianBlur stdDeviation="0.5" result="effect1_foregroundBlur_370_187"/>
</filter>
<filter id="filter2_f_370_187" x="17.4199" y="13.9883" width="74" height="88" filterUnits="userSpaceOnUse" color-interpolation-filters="sRGB">
<feFlood flood-opacity="0" result="BackgroundImageFix"/>
<feBlend mode="normal" in="SourceGraphic" in2="BackgroundImageFix" result="shape"/>
<feGaussianBlur stdDeviation="0.5" result="effect1_foregroundBlur_370_187"/>
</filter>
<filter id="filter3_f_370_187" x="19.9551" y="13.6758" width="64.2035" height="87.2969" filterUnits="userSpaceOnUse" color-interpolation-filters="sRGB">
<feFlood flood-opacity="0" result="BackgroundImageFix"/>
<feBlend mode="normal" in="SourceGraphic" in2="BackgroundImageFix" result="shape"/>
<feGaussianBlur stdDeviation="0.5" result="effect1_foregroundBlur_370_187"/>
</filter>
<filter id="filter4_f_370_187" x="21.9749" y="83.5132" width="44.8944" height="18.475" filterUnits="userSpaceOnUse" color-interpolation-filters="sRGB">
<feFlood flood-opacity="0" result="BackgroundImageFix"/>
<feBlend mode="normal" in="SourceGraphic" in2="BackgroundImageFix" result="shape"/>
<feGaussianBlur stdDeviation="0.5" result="effect1_foregroundBlur_370_187"/>
</filter>
<filter id="filter5_f_370_187" x="52.3066" y="13.9883" width="23.85" height="20.5685" filterUnits="userSpaceOnUse" color-interpolation-filters="sRGB">
<feFlood flood-opacity="0" result="BackgroundImageFix"/>
<feBlend mode="normal" in="SourceGraphic" in2="BackgroundImageFix" result="shape"/>
<feGaussianBlur stdDeviation="0.5" result="effect1_foregroundBlur_370_187"/>
</filter>
<filter id="filter6_i_370_187" x="37.4199" y="42.9883" width="34" height="34" filterUnits="userSpaceOnUse" color-interpolation-filters="sRGB">
<feFlood flood-opacity="0" result="BackgroundImageFix"/>
<feBlend mode="normal" in="SourceGraphic" in2="BackgroundImageFix" result="shape"/>
<feColorMatrix in="SourceAlpha" type="matrix" values="0 0 0 0 0 0 0 0 0 0 0 0 0 0 0 0 0 0 127 0" result="hardAlpha"/>
<feOffset/>
<feGaussianBlur stdDeviation="1.6"/>
<feComposite in2="hardAlpha" operator="arithmetic" k2="-1" k3="1"/>
<feColorMatrix type="matrix" values="0 0 0 0 0.533333 0 0 0 0 0 0 0 0 0 0.0327198 0 0 0 1 0"/>
<feBlend mode="normal" in2="shape" result="effect1_innerShadow_370_187"/>
</filter>
<filter id="filter7_i_370_187" x="40.9199" y="46.4883" width="27" height="28.1139" filterUnits="userSpaceOnUse" color-interpolation-filters="sRGB">
<feFlood flood-opacity="0" result="BackgroundImageFix"/>
<feBlend mode="normal" in="SourceGraphic" in2="BackgroundImageFix" result="shape"/>
<feColorMatrix in="SourceAlpha" type="matrix" values="0 0 0 0 0 0 0 0 0 0 0 0 0 0 0 0 0 0 127 0" result="hardAlpha"/>
<feOffset dy="1.11385"/>
<feGaussianBlur stdDeviation="1.67078"/>
<feComposite in2="hardAlpha" operator="arithmetic" k2="-1" k3="1"/>
<feColorMatrix type="matrix" values="0 0 0 0 0.533333 0 0 0 0 0 0 0 0 0 0.0327198 0 0 0 1 0"/>
<feBlend mode="normal" in2="shape" result="effect1_innerShadow_370_187"/>
</filter>
<filter id="filter8_f_370_187" x="44.1052" y="49.6982" width="5.62231" height="5.44708" filterUnits="userSpaceOnUse" color-interpolation-filters="sRGB">
<feFlood flood-opacity="0" result="BackgroundImageFix"/>
<feBlend mode="normal" in="SourceGraphic" in2="BackgroundImageFix" result="shape"/>
<feGaussianBlur stdDeviation="0.5" result="effect1_foregroundBlur_370_187"/>
</filter>
<linearGradient id="paint0_linear_370_187" x1="70.2007" y1="26.9039" x2="59.2424" y2="53.1282" gradientUnits="userSpaceOnUse">
<stop stop-color="white"/>
<stop offset="1" stop-color="white" stop-opacity="0"/>
</linearGradient>
<linearGradient id="paint1_linear_370_187" x1="38.4199" y1="100.988" x2="42.6383" y2="79.1269" gradientUnits="userSpaceOnUse">
<stop stop-color="white"/>
<stop offset="1" stop-color="white" stop-opacity="0"/>
</linearGradient>
<linearGradient id="paint2_linear_370_187" x1="74.9199" y1="32.9883" x2="31.9199" y2="90.9883" gradientUnits="userSpaceOnUse">
<stop stop-color="white" stop-opacity="0.65"/>
<stop offset="1" stop-color="white" stop-opacity="0"/>
</linearGradient>
</defs>
</svg>
