<svg width="667" height="670" viewBox="0 0 667 670" fill="none" xmlns="http://www.w3.org/2000/svg">
<g filter="url(#filter0_ddd_0_1)">
<ellipse cx="333.42" cy="330.988" rx="299" ry="300" fill="#0D42C1"/>
<path d="M333.42 631.988C499.108 631.988 633.42 497.223 633.42 330.988C633.42 164.754 499.108 29.9883 333.42 29.9883C167.731 29.9883 33.4199 164.754 33.4199 330.988C33.4199 497.223 167.731 631.988 333.42 631.988Z" stroke="#0D42C1" stroke-width="2"/>
</g>
<g filter="url(#filter1_i_0_1)">
<path fill-rule="evenodd" clip-rule="evenodd" d="M333.42 33.9883C496.896 33.9883 629.42 166.512 629.42 329.988C629.42 493.464 496.896 625.988 333.42 625.988C169.944 625.988 37.4199 493.464 37.4199 329.988C37.4199 166.512 169.944 33.9883 333.42 33.9883ZM333.42 76.9883C473.259 76.9883 586.624 190.149 586.624 329.988C586.624 469.827 473.259 582.988 333.42 582.988C193.581 582.988 80.627 469.827 80.627 329.988C80.627 190.149 193.581 76.9883 333.42 76.9883Z" fill="#C3D3FB"/>
</g>
<path fill-rule="evenodd" clip-rule="evenodd" d="M333.42 33.9883C496.896 33.9883 629.42 166.513 629.42 329.988C629.42 493.465 496.896 625.988 333.42 625.988C169.944 625.988 37.4199 493.464 37.4199 329.988C37.4199 166.512 169.944 33.9883 333.42 33.9883Z" fill="#0D42C1"/>
<g filter="url(#filter2_i_0_1)">
<path fill-rule="evenodd" clip-rule="evenodd" d="M80.4199 329.988C80.4199 469.715 193.693 582.988 333.42 582.988C473.146 582.988 586.42 469.719 586.42 329.988C586.42 190.262 473.146 76.9883 333.42 76.9883C193.693 76.9883 80.4199 190.258 80.4199 329.988ZM97.71 329.988C97.71 460.166 203.242 565.698 333.42 565.698C463.598 565.698 569.13 460.166 569.13 329.988C569.13 199.81 463.598 94.2784 333.42 94.2784C203.242 94.2784 97.71 199.81 97.71 329.988Z" fill="#003D6D"/>
</g>
<path d="M333.42 581.988C194.246 581.988 81.4199 469.163 81.4199 329.988C81.4199 190.81 194.246 77.9883 333.42 77.9883C472.594 77.9883 585.42 190.814 585.42 329.988C585.42 469.166 472.594 581.988 333.42 581.988ZM96.71 329.988C96.71 460.719 202.69 566.698 333.42 566.698C464.15 566.698 570.13 460.719 570.13 329.988C570.13 199.258 464.15 93.2784 333.42 93.2784C202.69 93.2784 96.71 199.258 96.71 329.988Z" stroke="#003D6D" stroke-width="2"/>
<path d="M333.42 565.988C463.759 565.988 569.42 460.327 569.42 329.988C569.42 199.649 463.759 93.9883 333.42 93.9883C203.081 93.9883 97.4199 199.649 97.4199 329.988C97.4199 460.327 203.081 565.988 333.42 565.988Z" fill="#0D42C1"/>
<g style="mix-blend-mode:color-burn" opacity="0.6" filter="url(#filter3_i_0_1)">
<path fill-rule="evenodd" clip-rule="evenodd" d="M333.42 93.9883C463.759 93.9883 569.42 199.65 569.42 329.988C569.42 460.328 463.759 565.988 333.42 565.988C203.081 565.988 97.4199 460.327 97.4199 329.988C97.4199 199.649 203.081 93.9883 333.42 93.9883ZM333.42 290.305C355.337 290.305 373.104 308.072 373.104 329.989C373.104 351.906 355.337 369.673 333.42 369.673C311.503 369.673 293.736 351.906 293.736 329.989C293.736 308.072 311.503 290.305 333.42 290.305Z" fill="white" fill-opacity="0.04"/>
</g>
<g style="mix-blend-mode:difference" opacity="0.5">
<path fill-rule="evenodd" clip-rule="evenodd" d="M333.42 93.9883C463.759 93.9883 569.42 199.65 569.42 329.988C569.42 460.328 463.759 565.988 333.42 565.988C203.081 565.988 97.4199 460.327 97.4199 329.988C97.4199 199.649 203.081 93.9883 333.42 93.9883Z" fill="url(#paint0_radial_0_1)"/>
</g>
<g filter="url(#filter4_i_0_1)">
<path fill-rule="evenodd" clip-rule="evenodd" d="M333.42 87.9883C467.071 87.9883 575.42 196.337 575.42 329.988C575.42 463.64 467.071 571.988 333.42 571.988C199.768 571.988 91.4199 463.64 91.4199 329.988C91.4199 196.337 199.768 87.9883 333.42 87.9883ZM333.42 102.154C459.25 102.154 561.254 204.158 561.254 329.988C561.254 455.818 459.25 557.823 333.42 557.823C207.59 557.823 105.585 455.818 105.585 329.988C105.585 204.158 207.59 102.154 333.42 102.154Z" fill="#C3D3FB"/>
</g>
<path d="M575.92 329.988C575.92 196.061 467.347 87.4883 333.42 87.4883C199.492 87.4883 90.9199 196.061 90.9199 329.988C90.9199 463.916 199.492 572.488 333.42 572.488C467.347 572.488 575.92 463.916 575.92 329.988ZM333.42 102.654C458.974 102.654 560.754 204.434 560.754 329.988C560.754 455.542 458.974 557.323 333.42 557.323C207.866 557.323 106.085 455.542 106.085 329.988C106.085 204.434 207.866 102.654 333.42 102.654Z" stroke="#0D42C1" stroke-miterlimit="22.9256"/>
<g style="mix-blend-mode:soft-light">
<circle cx="333.92" cy="331.488" r="122.5" fill="url(#paint1_radial_0_1)"/>
</g>
<defs>
<filter id="filter0_ddd_0_1" x="0.319923" y="0.888283" width="666.2" height="668.2" filterUnits="userSpaceOnUse" color-interpolation-filters="sRGB">
<feFlood flood-opacity="0" result="BackgroundImageFix"/>
<feColorMatrix in="SourceAlpha" type="matrix" values="0 0 0 0 0 0 0 0 0 0 0 0 0 0 0 0 0 0 127 0" result="hardAlpha"/>
<feOffset dy="4"/>
<feGaussianBlur stdDeviation="16.05"/>
<feComposite in2="hardAlpha" operator="out"/>
<feColorMatrix type="matrix" values="0 0 0 0 0 0 0 0 0 0 0 0 0 0 0 0 0 0 0.25 0"/>
<feBlend mode="normal" in2="BackgroundImageFix" result="effect1_dropShadow_0_1"/>
<feColorMatrix in="SourceAlpha" type="matrix" values="0 0 0 0 0 0 0 0 0 0 0 0 0 0 0 0 0 0 127 0" result="hardAlpha"/>
<feOffset dy="4"/>
<feGaussianBlur stdDeviation="2"/>
<feComposite in2="hardAlpha" operator="out"/>
<feColorMatrix type="matrix" values="0 0 0 0 0 0 0 0 0 0 0 0 0 0 0 0 0 0 0.3 0"/>
<feBlend mode="normal" in2="effect1_dropShadow_0_1" result="effect2_dropShadow_0_1"/>
<feColorMatrix in="SourceAlpha" type="matrix" values="0 0 0 0 0 0 0 0 0 0 0 0 0 0 0 0 0 0 127 0" result="hardAlpha"/>
<feOffset dy="-4"/>
<feGaussianBlur stdDeviation="2"/>
<feComposite in2="hardAlpha" operator="out"/>
<feColorMatrix type="matrix" values="0 0 0 0 0 0 0 0 0 0 0 0 0 0 0 0 0 0 0.25 0"/>
<feBlend mode="normal" in2="effect2_dropShadow_0_1" result="effect3_dropShadow_0_1"/>
<feBlend mode="normal" in="SourceGraphic" in2="effect3_dropShadow_0_1" result="shape"/>
</filter>
<filter id="filter1_i_0_1" x="37.4199" y="31.9883" width="592" height="594" filterUnits="userSpaceOnUse" color-interpolation-filters="sRGB">
<feFlood flood-opacity="0" result="BackgroundImageFix"/>
<feBlend mode="normal" in="SourceGraphic" in2="BackgroundImageFix" result="shape"/>
<feColorMatrix in="SourceAlpha" type="matrix" values="0 0 0 0 0 0 0 0 0 0 0 0 0 0 0 0 0 0 127 0" result="hardAlpha"/>
<feOffset dy="-2"/>
<feGaussianBlur stdDeviation="4"/>
<feComposite in2="hardAlpha" operator="arithmetic" k2="-1" k3="1"/>
<feColorMatrix type="matrix" values="0 0 0 0 1 0 0 0 0 1 0 0 0 0 1 0 0 0 0.5 0"/>
<feBlend mode="normal" in2="shape" result="effect1_innerShadow_0_1"/>
</filter>
<filter id="filter2_i_0_1" x="80.4199" y="76.9883" width="506" height="506" filterUnits="userSpaceOnUse" color-interpolation-filters="sRGB">
<feFlood flood-opacity="0" result="BackgroundImageFix"/>
<feBlend mode="normal" in="SourceGraphic" in2="BackgroundImageFix" result="shape"/>
<feColorMatrix in="SourceAlpha" type="matrix" values="0 0 0 0 0 0 0 0 0 0 0 0 0 0 0 0 0 0 127 0" result="hardAlpha"/>
<feOffset/>
<feGaussianBlur stdDeviation="3.9"/>
<feComposite in2="hardAlpha" operator="arithmetic" k2="-1" k3="1"/>
<feColorMatrix type="matrix" values="0 0 0 0 0 0 0 0 0 0 0 0 0 0 0 0 0 0 0.25 0"/>
<feBlend mode="normal" in2="shape" result="effect1_innerShadow_0_1"/>
</filter>
<filter id="filter3_i_0_1" x="97.4199" y="93.9883" width="472" height="472" filterUnits="userSpaceOnUse" color-interpolation-filters="sRGB">
<feFlood flood-opacity="0" result="BackgroundImageFix"/>
<feBlend mode="normal" in="SourceGraphic" in2="BackgroundImageFix" result="shape"/>
<feColorMatrix in="SourceAlpha" type="matrix" values="0 0 0 0 0 0 0 0 0 0 0 0 0 0 0 0 0 0 127 0" result="hardAlpha"/>
<feOffset/>
<feGaussianBlur stdDeviation="15.752"/>
<feComposite in2="hardAlpha" operator="arithmetic" k2="-1" k3="1"/>
<feColorMatrix type="matrix" values="0 0 0 0 0 0 0 0 0 0 0 0 0 0 0 0 0 0 1 0"/>
<feBlend mode="normal" in2="shape" result="effect1_innerShadow_0_1"/>
</filter>
<filter id="filter4_i_0_1" x="90.4199" y="86.9883" width="486" height="486" filterUnits="userSpaceOnUse" color-interpolation-filters="sRGB">
<feFlood flood-opacity="0" result="BackgroundImageFix"/>
<feBlend mode="normal" in="SourceGraphic" in2="BackgroundImageFix" result="shape"/>
<feColorMatrix in="SourceAlpha" type="matrix" values="0 0 0 0 0 0 0 0 0 0 0 0 0 0 0 0 0 0 127 0" result="hardAlpha"/>
<feOffset/>
<feGaussianBlur stdDeviation="3.91575"/>
<feComposite in2="hardAlpha" operator="arithmetic" k2="-1" k3="1"/>
<feColorMatrix type="matrix" values="0 0 0 0 0.586667 0 0 0 0 0.312889 0 0 0 0 0 0 0 0 1 0"/>
<feBlend mode="normal" in2="shape" result="effect1_innerShadow_0_1"/>
</filter>
<radialGradient id="paint0_radial_0_1" cx="0" cy="0" r="1" gradientUnits="userSpaceOnUse" gradientTransform="translate(333.42 329.988) rotate(90) scale(236)">
<stop stop-color="white" stop-opacity="0"/>
<stop offset="0.88" stop-color="#2A5580" stop-opacity="0"/>
<stop offset="1" stop-color="#2A5580"/>
</radialGradient>
<radialGradient id="paint1_radial_0_1" cx="0" cy="0" r="1" gradientUnits="userSpaceOnUse" gradientTransform="translate(333.92 331.488) rotate(90) scale(122.5)">
<stop stop-color="white"/>
<stop offset="1" stop-color="white" stop-opacity="0"/>
</radialGradient>
</defs>
</svg>
